<?xml version="1.0" encoding="iso-8859-1"?>
<!-- Generator: Adobe Illustrator 18.0.0, SVG Export Plug-In . SVG Version: 6.00 Build 0)  -->
<!DOCTYPE svg PUBLIC "-//W3C//DTD SVG 1.1//EN" "http://www.w3.org/Graphics/SVG/1.1/DTD/svg11.dtd">
<svg version="1.1" id="Capa_1" xmlns="http://www.w3.org/2000/svg" xmlns:xlink="http://www.w3.org/1999/xlink" x="0px" y="0px"
	 viewBox="0 0 476.887 476.887" style="enable-background:new 0 0 476.887 476.887;" xml:space="preserve">
<g>
	<path d="M471.163,47.511c-7.632-7.631-20.049-7.631-27.681,0c-1.915,1.916-3.374,4.162-4.346,6.606
		c-6.062-6.293-14.219-10.564-23.33-11.631c-25.807-3.029-51.54,9.159-65.559,31.035l-54.027,84.298l-12.072-19.787
		c-5.354-8.527-13.719-14.413-23.554-16.572c-9.834-2.158-19.896-0.318-28.331,5.182c-8.356,5.45-14.079,13.83-16.114,23.595
		c-2.036,9.766-0.137,19.734,5.346,28.068l2.212,3.364c6.822,10.368,20.448,13.395,31.017,6.891
		c4.975-3.062,8.489-7.803,10.019-13.403c5.784-0.25,11.412,1.638,15.832,5.185c-8.475,10.085-38.986,45.495-82.286,85.604
		C113.034,344.917,44.795,380.887,2.562,397.157c-1.604,0.618-2.634,2.191-2.558,3.909c0.076,1.717,1.241,3.194,2.893,3.668
		c7.722,2.215,16.281,3.184,25.36,3.184c41.844-0.002,94.58-20.594,125.645-34.626c59.542-26.895,118.497-64.634,157.703-100.952
		c1.165-1.079,1.581-2.745,1.061-4.245c-0.521-1.5-1.878-2.551-3.461-2.677c-5.612-0.448-10.886-2.878-14.852-6.843
		c-4.473-4.473-6.936-10.42-6.935-16.746c0.001-6.327,2.467-12.277,6.944-16.754c3.153-3.153,7.02-5.287,11.286-6.283l21.935,35.954
		c5.354,8.527,13.72,14.413,23.555,16.572c2.686,0.59,5.388,0.881,8.071,0.881c7.138,0,14.129-2.064,20.259-6.063
		c8.356-5.45,14.079-13.83,16.115-23.596s0.137-19.734-5.346-28.068l-2.213-3.363c-6.821-10.37-20.446-13.396-31.016-6.891
		c-4.975,3.062-8.49,7.803-10.02,13.404c-3.59,0.156-7.116-0.516-10.335-1.899c7.434-4.948,12.174-13.368,12.267-22.535
		c0.256-25.368,15.357-48.516,38.471-58.972l39.864-18.034c14.377-6.504,23.297-21.062,22.715-36.691
		c2.352,0.95,4.852,1.425,7.352,1.425c5.013,0,10.025-1.908,13.841-5.724C478.794,67.56,478.794,55.142,471.163,47.511z
		 M413.423,113.658l-6.754,3.055c-0.294-11.447-3.776-35.697-25.099-60.599c6.534-3.16,13.626-5.159,20.926-5.829
		C406.469,57.763,418.915,84.299,413.423,113.658z M344.098,97.94c6.997,4.894,23.48,17.505,32.202,33.109
		c-1.612,0.979-3.178,2.018-4.699,3.111c-5.747-5.13-20.496-16.934-37.732-20.26L344.098,97.94z M18.188,399.429
		c43.265-18.546,107.43-55.265,185.537-127.615c7.594-7.034,14.796-13.926,21.564-20.568c4.254,0.012,8.388,1.616,11.522,4.543
		c3.502,3.27,5.46,7.893,5.373,12.686l-0.005,0.279c-0.035,1.987,1.395,3.698,3.357,4.018l7.807,1.271
		c8.531,1.388,14.63,8.945,14.188,17.577l-0.342,6.683C189.457,355.208,78.031,405.106,18.188,399.429z M288.705,219.418
		c-5.987,5.988-9.286,13.946-9.287,22.41s3.293,16.42,9.278,22.404c3.334,3.334,7.359,5.858,11.751,7.422
		c-7.702,6.829-16.064,13.664-24.928,20.427l0.003-0.051c0.651-12.711-8.331-23.838-20.892-25.883l-4.596-0.748
		c-0.658-5.874-3.395-11.38-7.761-15.457c-2.852-2.664-6.265-4.589-9.935-5.677c27.197-27.195,46.294-49.226,53.571-57.838
		c0.167,0.273,4.994,8.195,4.994,8.195c-7.502,4.749-27.271,19.38-29.455,42.859c-0.205,2.2,1.413,4.149,3.612,4.354
		c0.126,0.012,0.251,0.018,0.375,0.018c2.042,0,3.785-1.557,3.978-3.63c1.827-19.641,19.179-32.572,25.666-36.754l6.242,10.231
		C296.596,213.221,292.301,215.822,288.705,219.418z M346.231,225.651c0.313,3.603,1.485,7.102,3.486,10.246l1.023,1.607
		c-2.69-0.097-5.342-0.8-7.775-2.124c-1.939-1.055-4.369-0.339-5.425,1.601s-0.339,4.37,1.601,5.425
		c3.813,2.075,7.993,3.13,12.216,3.13c2.437,0,4.889-0.351,7.291-1.061c6.566-1.938,11.984-6.317,15.256-12.33
		c1.056-1.94,0.339-4.37-1.602-5.426c-1.94-1.055-4.369-0.339-5.426,1.602c-1.78,3.271-4.493,5.823-7.78,7.414l-2.63-4.133
		c-2.147-3.374-2.835-7.378-1.938-11.276s3.267-7.198,6.673-9.294c6.863-4.224,15.71-2.259,20.14,4.475l2.213,3.363
		c4.305,6.544,5.796,14.371,4.198,22.039c-1.599,7.668-6.092,14.248-12.653,18.527c-6.622,4.319-14.521,5.765-22.245,4.068
		c-7.722-1.695-14.291-6.316-18.468-12.968l-41.026-67.246c-5.666-10.137-16.467-16.255-27.859-16.165
		c-0.313-3.602-1.486-7.101-3.486-10.244l-1.022-1.606c2.69,0.097,5.342,0.8,7.775,2.124c1.941,1.055,4.369,0.339,5.426-1.602
		c1.056-1.94,0.339-4.37-1.602-5.426c-12.414-6.753-28.008-2.152-34.764,10.261c-1.056,1.94-0.339,4.37,1.602,5.426
		c0.607,0.33,1.263,0.487,1.909,0.487c1.418,0,2.792-0.756,3.517-2.089c1.78-3.271,4.493-5.823,7.78-7.414l2.63,4.133
		c2.147,3.375,2.835,7.379,1.938,11.276s-3.267,7.198-6.672,9.294c-6.865,4.225-15.711,2.258-20.141-4.474l-2.212-3.363
		c-4.305-6.544-5.796-14.371-4.198-22.04c1.598-7.668,6.092-14.248,12.653-18.526c6.623-4.319,14.524-5.764,22.245-4.069
		c7.722,1.695,14.29,6.316,18.467,12.969l41.026,67.246c5.625,10.063,16.308,16.173,27.61,16.173
		C346.065,225.661,346.148,225.652,346.231,225.651z M340.919,193.107c-0.077,7.652-4.728,14.565-11.688,17.581
		c-1.509-1.513-2.838-3.233-3.907-5.159c-0.026-0.047-0.054-0.095-0.082-0.141l-1.486-2.435l8.219-8.993
		c1.49-1.631,1.376-4.161-0.254-5.651c-1.631-1.49-4.161-1.377-5.651,0.254l-6.653,7.279l-4.433-7.267l9.521-10.785
		c1.462-1.656,1.305-4.184-0.351-5.646c-1.656-1.461-4.184-1.305-5.646,0.351l-7.885,8.932l-3.621-5.935l7.113-8.113
		c1.456-1.661,1.29-4.188-0.371-5.645c-1.66-1.456-4.188-1.291-5.645,0.371l-5.463,6.231l-1.783-2.922l6.732-10.504
		c15.028,3.385,30.432,19.173,34.881,24.032C341.504,183.556,340.968,188.294,340.919,193.107z M344.946,169.935
		c-6.678-6.734-19.326-17.979-32.828-22.097l17.031-26.574c15.547,1.779,29.925,12.688,36.115,18.007
		C356.028,147.61,349.017,158.183,344.946,169.935z M384.093,126.927c-0.248,0.112-0.49,0.235-0.737,0.35
		c-9.677-17.409-27.486-30.934-34.931-36.087l8.557-13.352c4.586-7.155,10.593-13.132,17.494-17.691
		c23.267,26.488,24.381,52.673,24.157,60.202L384.093,126.927z M423.958,108.892l-1.818,0.823
		c3.243-26.156-5.643-49.043-10.732-59.577c1.155,0.067,2.311,0.159,3.468,0.294c10.277,1.204,19.03,7.542,23.641,16.333
		c0.438,1.531,1.07,2.993,1.869,4.371c0.753,2.216,1.263,4.54,1.487,6.943C443.084,91.114,435.885,103.497,423.958,108.892z
		 M465.506,69.535c-4.512,4.513-11.855,4.513-16.367,0c-0.56-0.56-1.049-1.163-1.47-1.799c-0.465-1.272-1-2.511-1.592-3.718
		c-0.889-3.776,0.123-7.912,3.062-10.85c2.256-2.256,5.22-3.384,8.184-3.384c2.963,0,5.927,1.128,8.183,3.384
		C470.019,57.68,470.019,65.023,465.506,69.535z"/>
	<path d="M228.95,281.633c-46.209,40.208-113.591,76.211-114.266,76.57c-1.951,1.037-2.691,3.458-1.654,5.409
		c0.719,1.353,2.104,2.124,3.535,2.124c0.633,0,1.276-0.151,1.874-0.469c0.683-0.363,68.854-36.782,115.762-77.599
		c1.667-1.45,1.842-3.977,0.392-5.643C233.144,280.359,230.617,280.184,228.95,281.633z"/>
	<path d="M175.732,381.105c-0.758-0.837-1.834-1.314-2.964-1.314s-2.206,0.477-2.964,1.314c-0.188,0.207-4.652,5.148-9.182,11.396
		c-6.506,8.975-9.668,15.774-9.668,20.784c0,12.028,9.786,21.814,21.814,21.814s21.814-9.786,21.814-21.814
		c0-5.01-3.163-11.809-9.668-20.784C180.385,386.253,175.92,381.312,175.732,381.105z M172.769,427.099
		c-7.617,0-13.814-6.197-13.814-13.814c0-4.936,7.328-15.617,13.815-23.393c6.486,7.771,13.813,18.449,13.813,23.393
		C186.583,420.903,180.386,427.099,172.769,427.099z"/>
</g>
<g>
</g>
<g>
</g>
<g>
</g>
<g>
</g>
<g>
</g>
<g>
</g>
<g>
</g>
<g>
</g>
<g>
</g>
<g>
</g>
<g>
</g>
<g>
</g>
<g>
</g>
<g>
</g>
<g>
</g>
</svg>
